<svg xmlns="http://www.w3.org/2000/svg" version="1.1" xmlns:xlink="http://www.w3.org/1999/xlink" xmlns:svgjs="http://svgjs.dev/svgjs" viewBox="0 0 800 800" opacity="1"><defs><symbol id="bbburst-shape-6" viewBox="0 0 133 116"><path d="M59.7487 10.2513c-13.6683-13.66839-35.8291-13.66839-49.4974 0-13.66839 13.6683-13.66839 35.8291 0 49.4974l49.4974-49.4974ZM66.5 66.5 41.7513 91.2487 66.5 115.997l24.7487-24.7483L66.5 66.5Zm56.249-6.7513c13.668-13.6683 13.668-35.8291 0-49.4974-13.669-13.66839-35.8294-13.66839-49.4977 0l49.4977 49.4974Zm-112.4977 0 31.5 31.5 49.4974-49.4974-31.5-31.5-49.4974 49.4974Zm80.9974 31.5 31.5003-31.5-49.4977-49.4974-31.5 31.5 49.4974 49.4974Z"></path></symbol><symbol id="bbburst-shape-7" viewBox="0 0 139 124"><path fill-rule="evenodd" clip-rule="evenodd" d="M70.1641 15.0917C54.6093.764854 37.8293-2.10782 24.4032 2.82615 10.3804 7.97941.763366 21.4591 1.00047 37.0608c.1068 7.0273 2.86132 13.7317 7.0039 20.2001C12.1442 63.7249 17.853 70.2322 24.25 76.9024c3.8209 3.9842 7.8871 8.0312 12.0767 12.201h.0001c10.0335 9.9862 20.7748 20.6766 30.5497 32.8956 1.38 1.725 3.8972 2.005 5.6223.624.6706-.536 1.1228-1.244 1.3439-2.011 9.5768-11.748 20.0328-22.0735 29.8163-31.7351 4.19-4.1373 8.256-8.1528 12.078-12.1062 6.396-6.6176 12.106-13.0752 16.247-19.4911 4.144-6.4196 6.905-13.0811 7.012-20.0691.237-15.5124-9.399-28.8902-23.411-33.99923-13.32-4.85681-29.9542-2.08621-45.4209 11.88043Zm-3.7351 7.4919C52.1278 8.44857 37.6826 6.46918 27.1626 10.3352 16.2859 14.3323 8.8148 24.7824 8.99955 36.9392c.07575 4.9844 2.03755 10.2234 5.74165 16.0072 3.707 5.7881 8.9752 11.8418 15.2827 18.4187 3.5798 3.7328 7.4978 7.6329 11.6 11.7163 9.0476 9.0063 18.9911 18.9046 28.1786 29.8666 9.2999-11.068 19.4036-21.0473 28.5839-30.1144l.0007-.0006c4.1019-4.0508 8.0189-7.9196 11.5979-11.6222 6.307-6.5252 11.573-12.5298 15.278-18.2697 3.703-5.7362 5.658-10.924 5.734-15.8531.184-12.0276-7.267-22.3914-18.153-26.3608-10.71-3.90518-25.4722-1.80041-40.0023 12.867-1.5547 1.5694-4.0874 1.5813-5.6568.0265-.3146-.3116-.5666-.6625-.7559-1.0371Z"></path></symbol><symbol id="bbburst-shape-8" viewBox="0 0 87 168"><path d="m12 12 31.2546 18.0749c16.4102 9.4902 20.014 31.6325 7.4603 45.8369L36.3296 92.1884c-12.5684 14.2206-8.9394 36.3916 7.5068 45.8636L75 156" stroke-width="14" stroke-linecap="round" stroke-linejoin="round"></path></symbol><symbol id="bbburst-shape-9" viewBox="0 0 182 172"><path d="M13.5809 69.845 91 13.5967l77.419 56.2483-29.571 91.012H43.1524L13.5809 69.845Z" stroke-width="22"></path></symbol><symbol id="bbburst-shape-10" viewBox="0 0 145 145"><circle cx="72.5" cy="72.5" r="61.5" fill="none" stroke-width="22"></circle></symbol><symbol id="bbburst-shape-11" viewBox="0 0 194 167"><path d="M10.398 161 97 11l86.603 150H10.397Z" stroke-width="11"></path></symbol><symbol id="bbburst-shape-12" viewBox="0 0 170 151"><path d="M69.3728 54.2122 85 10.0031l15.627 44.2091c1.413 3.9958 5.19 6.6672 9.428 6.6673h49.312l-39.149 26.1447c-3.803 2.5401-5.399 7.3367-3.875 11.6488l15.179 42.94-40.9683-27.36c-3.3621-2.245-7.7453-2.245-11.1074 0l-40.9682 27.36 15.1785-42.94c1.5243-4.3121-.0712-9.1087-3.8746-11.6488L10.6333 60.8795h49.3112c4.2381-.0001 8.0159-2.6715 9.4283-6.6673Z" stroke-width="12"></path></symbol><symbol id="bbburst-shape-13" viewBox="0 0 159 159"><path stroke-width="22" d="M11 11h137v137H11z"></path></symbol></defs><use xlink:href="#bbburst-shape-10" width="48.50598583915776" opacity="0.46065692129145797" transform="matrix(0.9850220437986825,-0.17242845829695955,0.17242845829695955,0.9850220437986825,362.73096662756336,25.232301765809325)" fill="none" stroke="#ffa6d5"></use><use xlink:href="#bbburst-shape-8" width="67.59334608216794" opacity="0.20410546294289988" transform="matrix(0.9998360720542953,0.01810604923880664,-0.01810604923880664,0.9998360720542953,248.38146575729576,197.57551693051556)" fill="none" stroke="#00a19d"></use><use xlink:href="#bbburst-shape-11" width="7.3917083841738505" opacity="0.9609213858760738" transform="matrix(0.9046090613162794,0.42624223885541884,-0.42624223885541884,0.9046090613162794,929.4854412813332,-353.24901220782283)" fill="none" stroke="#ff5c58"></use><use xlink:href="#bbburst-shape-12" width="20.068101539541665" opacity="0.8278526176853666" transform="matrix(0.9808909607110323,0.19455827711867707,-0.19455827711867707,0.9808909607110323,724.8317154250864,-298.73577543619245)" fill="none" stroke="#00a19d"></use><use xlink:href="#bbburst-shape-11" width="36.06191921676909" opacity="0.24068919042751102" transform="matrix(0.9679756196320654,-0.2510442188099919,0.2510442188099919,0.9679756196320654,-72.29366600082213,-296.0751851775748)" fill="none" stroke="#00a19d"></use><use xlink:href="#bbburst-shape-11" width="16.79352804526471" opacity="0.7633701501562444" transform="matrix(0.8500264154783552,-0.5267400620695359,0.5267400620695359,0.8500264154783552,355.40101940279067,-267.78057156708593)" fill="none" stroke="#ffa6d5"></use><use xlink:href="#bbburst-shape-7" width="12.864071722900567" opacity="0.8771329070299229" transform="matrix(0.8232287489889986,-0.5677098086505186,0.5677098086505186,0.8232287489889986,549.164364950618,-204.13821498822352)" fill="#00a19d"></use><use xlink:href="#bbburst-shape-13" width="29.207478269373" opacity="0.7100338692537433" transform="matrix(0.9441181219404255,-0.32960729940898414,0.32960729940898414,0.9441181219404255,571.1318291276202,-95.07150763834613)" fill="none" stroke="#ffa6d5"></use><use xlink:href="#bbburst-shape-9" width="22.262855184793047" opacity="0.7645643697365978" transform="matrix(0.9115897710536447,0.4111010694590367,-0.4111010694590367,0.9115897710536447,888.354003994463,-143.35366166571688)" fill="none" stroke="#2c2891"></use><use xlink:href="#bbburst-shape-13" width="36.8808243734372" opacity="0.5107753991554855" transform="matrix(0.9261981119150751,0.37703720968221427,-0.37703720968221427,0.9261981119150751,448.11774237951806,-318.1345761791004)" fill="none" stroke="#2c2891"></use><use xlink:href="#bbburst-shape-7" width="13.158945618661413" opacity="0.8829099362045805" transform="matrix(0.9173726367682258,0.398029452815885,-0.398029452815885,0.9173726367682258,853.352767612674,-308.32317184418093)" fill="#00a19d"></use><use xlink:href="#bbburst-shape-6" width="41.786553449988666" opacity="0.5162434942213185" transform="matrix(0.9995585050153892,0.029711867181315486,-0.029711867181315486,0.9995585050153892,332.8788828640835,-245.05774842163115)" fill="#ffa6d5"></use><use xlink:href="#bbburst-shape-8" width="41.50614786784088" opacity="0.33245240507620233" transform="matrix(0.9726445566065951,-0.2322984427488917,0.2322984427488917,0.9726445566065951,23.338057628698678,-311.3561862645113)" fill="none" stroke="#2c2891"></use><use xlink:href="#bbburst-shape-9" width="35.355380857823604" opacity="0.5700549219161599" transform="matrix(0.9311351151879219,0.36467437154806387,-0.36467437154806387,0.9311351151879219,818.0245376236858,36.12050820071488)" fill="none" stroke="#2c2891"></use><use xlink:href="#bbburst-shape-11" width="15.096791880904608" opacity="0.8007705575144991" transform="matrix(0.7104149910396641,-0.7037830208992782,0.7037830208992782,0.7104149910396641,491.4239406051928,-80.9327172248585)" fill="none" stroke="#2c2891"></use><use xlink:href="#bbburst-shape-7" width="68.95377105723867" opacity="0.22810044177551014" transform="matrix(0.9717756428277357,0.23590697320499288,-0.23590697320499288,0.9717756428277357,129.07027488271157,-150.63588815891032)" fill="#ffbd9b"></use><use xlink:href="#bbburst-shape-10" width="21.60583689210931" opacity="0.8086693106395395" transform="matrix(0.9457566273242921,-0.32487597921696215,0.32487597921696215,0.9457566273242921,590.6992387677495,-196.38901779003177)" fill="none" stroke="#2c2891"></use><use xlink:href="#bbburst-shape-8" width="31.48363414883276" opacity="0.48843719687455966" transform="matrix(0.9834593968885891,0.18112872403772023,-0.18112872403772023,0.9834593968885891,726.9927743424255,98.5400541427179)" fill="none" stroke="#ff5c58"></use><use xlink:href="#bbburst-shape-10" width="42.502143001064866" opacity="0.24230704779528445" transform="matrix(0.8552351825748263,0.518240081898538,-0.518240081898538,0.8552351825748263,919.1493418104362,401.34789676830803)" fill="none" stroke="#ff5c58"></use><use xlink:href="#bbburst-shape-8" width="16.59728944940032" opacity="0.7590179074855544" transform="matrix(0.9071898876878708,-0.42072141338047964,0.42072141338047964,0.9071898876878708,508.8217185347737,-147.80914113095002)" fill="none" stroke="#00a19d"></use><use xlink:href="#bbburst-shape-13" width="13.776950068704506" opacity="0.8925304414044921" transform="matrix(0.9761942747326742,-0.21689798979969407,0.21689798979969407,0.9761942747326742,633.5807724103831,-310.0525220609236)" fill="none" stroke="#00a19d"></use><use xlink:href="#bbburst-shape-6" width="33.38569817494159" opacity="0.5479764295974412" transform="matrix(0.8178703110198671,-0.5754026019686267,0.5754026019686267,0.8178703110198671,171.84130032196194,-79.62674135131786)" fill="#2c2891"></use><use xlink:href="#bbburst-shape-9" width="13.85784359478674" opacity="0.918717671882043" transform="matrix(0.8330468713127426,-0.553202413404037,0.553202413404037,0.8330468713127426,503.5036786573197,-287.13589368794413)" fill="none" stroke="#ffa6d5"></use><use xlink:href="#bbburst-shape-7" width="57.15617432151298" opacity="0.1606179353391063" transform="matrix(0.8452714049677651,0.534337208084764,-0.534337208084764,0.8452714049677651,257.1881525548504,56.86786272381579)" fill="#2c2891"></use><use xlink:href="#bbburst-shape-6" width="14.938154911983567" opacity="0.8729422981635404" transform="matrix(0.9593774079471753,0.28212583915791745,-0.28212583915791745,0.9593774079471753,779.6110208249646,-370.0747559439078)" fill="#ff5c58"></use><use xlink:href="#bbburst-shape-11" width="21.170286256702777" opacity="0.8153119761774501" transform="matrix(0.9387402644269078,0.34462547198908433,-0.34462547198908433,0.9387402644269078,754.041840208366,-317.3870919296295)" fill="none" stroke="#2c2891"></use><use xlink:href="#bbburst-shape-11" width="47.846983206150746" opacity="0.35015043351715214" transform="matrix(0.8672244641237824,-0.49791739156733467,0.49791739156733467,0.8672244641237824,161.97012841550404,162.22251016486473)" fill="none" stroke="#00a19d"></use><use xlink:href="#bbburst-shape-10" width="22.594312267597303" opacity="0.7457730729379306" transform="matrix(0.9506570078430842,-0.310243861242788,0.310243861242788,0.9506570078430842,641.1861621690774,-123.66416635471703)" fill="none" stroke="#2c2891"></use><use xlink:href="#bbburst-shape-7" width="57.5641844178542" opacity="0.1104169606789498" transform="matrix(0.9982634492421267,0.05890743507581933,-0.05890743507581933,0.9982634492421267,97.65629926012511,151.77109009097666)" fill="#00a19d"></use><use xlink:href="#bbburst-shape-9" width="21.67875131809735" opacity="0.795100022753881" transform="matrix(0.9947633329709138,0.10220524143408106,-0.10220524143408106,0.9947633329709138,707.6249023039852,-234.90166140584037)" fill="none" stroke="#2c2891"></use><use xlink:href="#bbburst-shape-9" width="33.71397974938592" opacity="0.4657133290059693" transform="matrix(0.9091439790496397,0.4164819628240678,-0.4164819628240678,0.9091439790496397,903.4055227396702,161.24523991492384)" fill="none" stroke="#ffa6d5"></use><use xlink:href="#bbburst-shape-12" width="10.835873579541289" opacity="0.9485193649520894" transform="matrix(0.72289372926675,-0.6909592290336751,0.6909592290336751,0.72289372926675,481.5550607874423,-250.84085593899295)" fill="none" stroke="#2c2891"></use><use xlink:href="#bbburst-shape-13" width="70.97337601994876" opacity="-0.019732948335708045" transform="matrix(0.9679028213209827,0.2513247470482799,-0.2513247470482799,0.9679028213209827,132.23156675581495,311.85501197257173)" fill="none" stroke="#00a19d"></use><use xlink:href="#bbburst-shape-12" width="7.963178006493138" opacity="0.9430566608834855" transform="matrix(0.9881293967731235,-0.15362387585522966,0.15362387585522966,0.9881293967731235,679.6560225398692,-379.74879411113744)" fill="none" stroke="#ffa6d5"></use><use xlink:href="#bbburst-shape-11" width="15.419005178707122" opacity="0.8361459186006097" transform="matrix(0.9968277177292424,-0.0795895795108241,0.0795895795108241,0.9968277177292424,597.8043128445114,-378.5618128499347)" fill="none" stroke="#ffa6d5"></use><use xlink:href="#bbburst-shape-11" width="38.93912665111534" opacity="0.4266627065533317" transform="matrix(0.9828804257734826,-0.1842445891507745,0.1842445891507745,0.9828804257734826,258.92245656735537,-32.460235115139085)" fill="none" stroke="#ffa6d5"></use><use xlink:href="#bbburst-shape-8" width="17.387146877967936" opacity="0.7108570206171365" transform="matrix(0.963036943238305,-0.26936934858706874,0.26936934858706874,0.963036943238305,541.5790112915222,-131.1706441482198)" fill="none" stroke="#00a19d"></use><use xlink:href="#bbburst-shape-13" width="31.342754647015507" opacity="0.7154698346220268" transform="matrix(0.8377897864971681,-0.5459929245338528,0.5459929245338528,0.8377897864971681,333.2347667070174,-166.49646047457372)" fill="none" stroke="#ffa6d5"></use><use xlink:href="#bbburst-shape-8" width="39.34317591055836" opacity="0.368325713900838" transform="matrix(0.9893196057505569,0.14576253866327468,-0.14576253866327468,0.9893196057505569,793.872106884181,231.47618079484795)" fill="none" stroke="#ffbd9b"></use><use xlink:href="#bbburst-shape-8" width="17.40133632482741" opacity="0.8435000548267333" transform="matrix(0.9802667188468218,0.19767943727481133,-0.19767943727481133,0.9802667188468218,843.6407429535725,-239.65623039666087)" fill="none" stroke="#ffbd9b"></use><use xlink:href="#bbburst-shape-7" width="31.540496269394303" opacity="0.6122715844636575" transform="matrix(0.728384571934864,-0.6851685306311616,0.6851685306311616,0.728384571934864,283.0100398901752,30.667966963406855)" fill="#00a19d"></use><use xlink:href="#bbburst-shape-12" width="14.525850039315277" opacity="0.8707813709400621" transform="matrix(0.8656453869262833,0.5006576316139055,-0.5006576316139055,0.8656453869262833,936.2301095403827,-234.3258683636588)" fill="none" stroke="#ffbd9b"></use><use xlink:href="#bbburst-shape-12" width="32.39143576406265" opacity="0.6444497520993313" transform="matrix(0.7082374608090389,-0.7059742906839915,0.7059742906839915,0.7082374608090389,416.1576552998318,72.08360171998675)" fill="none" stroke="#2c2891"></use><use xlink:href="#bbburst-shape-11" width="29.45067149101577" opacity="0.5910314752358903" transform="matrix(0.7226562250832056,0.6912076246313341,-0.6912076246313341,0.7226562250832056,659.5089903200176,-255.5179188117557)" fill="none" stroke="#ffa6d5"></use><use xlink:href="#bbburst-shape-12" width="26.170304855220476" opacity="0.6784437997755708" transform="matrix(0.7170722894201751,-0.6969988032598827,0.6969988032598827,0.7170722894201751,308.27461539036454,-28.78041901443018)" fill="none" stroke="#ffbd9b"></use><use xlink:href="#bbburst-shape-13" width="32.83790562300114" opacity="0.7023426289792256" transform="matrix(0.8093233790779749,0.5873633186349045,-0.5873633186349045,0.8093233790779749,741.6343437385024,-232.4417136711687)" fill="none" stroke="#ffa6d5"></use><use xlink:href="#bbburst-shape-9" width="36.18892152456823" opacity="0.6160438681520635" transform="matrix(0.9708771716598815,-0.23957779018454325,0.23957779018454325,0.9708771716598815,322.36555010216887,-262.609254887886)" fill="none" stroke="#00a19d"></use><use xlink:href="#bbburst-shape-9" width="38.35650112342808" opacity="0.2068380721980253" transform="matrix(0.9999856529424116,-0.005356669612625693,0.005356669612625693,0.9999856529424116,517.6323428943349,348.82322279960164)" fill="none" stroke="#ffa6d5"></use><use xlink:href="#bbburst-shape-6" width="25.182550020733196" opacity="0.6579199190809273" transform="matrix(0.9957658661580152,0.09192572977451778,-0.09192572977451778,0.9957658661580152,676.6298834912151,-90.86620357162604)" fill="#00a19d"></use><use xlink:href="#bbburst-shape-13" width="16.43753700492097" opacity="0.858371335836984" transform="matrix(0.9987970242805816,0.04903574500561209,-0.04903574500561209,0.9987970242805816,679.9366355247166,-347.2470331039135)" fill="none" stroke="#ffbd9b"></use><use xlink:href="#bbburst-shape-8" width="18.778338386257133" opacity="0.7713357465234019" transform="matrix(0.99543596654518,0.09543184221350569,-0.09543184221350569,0.99543596654518,627.9967752937796,-289.73246386689993)" fill="none" stroke="#ff5c58"></use><use xlink:href="#bbburst-shape-12" width="23.519206353050652" opacity="0.7348885068992641" transform="matrix(0.999323682155157,-0.03677197688265727,0.03677197688265727,0.999323682155157,592.5054196975611,-205.6612495397603)" fill="none" stroke="#2c2891"></use><use xlink:href="#bbburst-shape-12" width="28.34294581213769" opacity="0.6674460647727025" transform="matrix(0.998558560658843,-0.05367309321196047,0.05367309321196047,0.998558560658843,434.10168277237335,-359.8507084790907)" fill="none" stroke="#2c2891"></use><use xlink:href="#bbburst-shape-8" width="61.1870442534142" opacity="0.30536133274100463" transform="matrix(0.9916042572444376,0.12930969420235738,-0.12930969420235738,0.9916042572444376,213.15044915963523,-65.08187772272856)" fill="none" stroke="#00a19d"></use><use xlink:href="#bbburst-shape-8" width="21.20016612445501" opacity="0.7901448496460836" transform="matrix(0.9165538438757961,-0.39991130426196103,0.39991130426196103,0.9165538438757961,421.5563357042594,-341.00601506012725)" fill="none" stroke="#ff5c58"></use><use xlink:href="#bbburst-shape-13" width="32.970337482752164" opacity="0.6392663006116377" transform="matrix(0.945185575815738,0.3265336541152716,-0.3265336541152716,0.945185575815738,641.4270283394816,-148.3632555115344)" fill="none" stroke="#00a19d"></use><use xlink:href="#bbburst-shape-11" width="54.425216690490835" opacity="0.06381636987660999" transform="matrix(0.8770916088174638,0.48032313055066683,-0.48032313055066683,0.8770916088174638,377.4292046980221,361.39679699373534)" fill="none" stroke="#00a19d"></use><use xlink:href="#bbburst-shape-8" width="42.12244043776668" opacity="0.2993023294176622" transform="matrix(0.8472044255985934,0.5312670338409465,-0.5312670338409465,0.8472044255985934,857.932134316367,337.15666372637065)" fill="none" stroke="#ff5c58"></use><use xlink:href="#bbburst-shape-11" width="11.95710721879222" opacity="0.9036690979690731" transform="matrix(0.9598860709261419,-0.28039031873795817,0.28039031873795817,0.9598860709261419,641.0914728528496,-295.24192631053904)" fill="none" stroke="#ffa6d5"></use><use xlink:href="#bbburst-shape-8" width="26.70682315228225" opacity="0.6423394825449558" transform="matrix(0.9694915320983164,0.24512480329346334,-0.24512480329346334,0.9694915320983164,573.0714300401426,-216.2648988936565)" fill="none" stroke="#ffbd9b"></use><use xlink:href="#bbburst-shape-11" width="42.995977051576496" opacity="0.4022052157208915" transform="matrix(0.9697004160893826,-0.2442971613344662,0.2442971613344662,0.9697004160893826,521.8106800884575,192.96119278528198)" fill="none" stroke="#00a19d"></use><use xlink:href="#bbburst-shape-10" width="46.877577000698274" opacity="0.14738067264322652" transform="matrix(0.9034817266363492,0.4286266086399692,-0.4286266086399692,0.9034817266363492,520.7533246672373,365.0875346114922)" fill="none" stroke="#00a19d"></use><use xlink:href="#bbburst-shape-12" width="4.416586221779704" opacity="0.9796402382489129" transform="matrix(0.8933994589990877,-0.44926318195478404,0.44926318195478404,0.8933994589990877,611.525644311697,-337.18158919880534)" fill="none" stroke="#2c2891"></use><use xlink:href="#bbburst-shape-13" width="16.067669639491104" opacity="0.8368197176106335" transform="matrix(0.8804823715451568,-0.4740788894247627,0.4740788894247627,0.8804823715451568,519.1930454951423,-208.54614001789304)" fill="none" stroke="#00a19d"></use><use xlink:href="#bbburst-shape-9" width="9.146310604296" opacity="0.9229423804877505" transform="matrix(0.8504533858250313,0.5260504144459356,-0.5260504144459356,0.8504533858250313,930.480921387574,-330.41899317274596)" fill="none" stroke="#ffa6d5"></use><use xlink:href="#bbburst-shape-12" width="25.20856862283469" opacity="0.6201823837567093" transform="matrix(0.9894530769966521,0.14485374838732126,-0.14485374838732126,0.9894530769966521,812.8954214668503,-19.234601976984663)" fill="none" stroke="#ff5c58"></use><use xlink:href="#bbburst-shape-8" width="12.981098459344821" opacity="0.9266307804419937" transform="matrix(0.9827414897190935,-0.18498422739438317,0.18498422739438317,0.9827414897190935,675.4355174119672,-333.3290051996424)" fill="none" stroke="#ffa6d5"></use><use xlink:href="#bbburst-shape-11" width="32.69875908258181" opacity="0.5475734899758085" transform="matrix(0.7965286265499679,0.6046008163130626,-0.6046008163130626,0.7965286265499679,701.6254039572683,-16.632871223429333)" fill="none" stroke="#00a19d"></use><use xlink:href="#bbburst-shape-8" width="11.718045410105137" opacity="0.8992866880234026" transform="matrix(0.9051049915832082,0.42518813978186243,-0.42518813978186243,0.9051049915832082,866.562097594801,-342.2186482508407)" fill="none" stroke="#ffbd9b"></use><use xlink:href="#bbburst-shape-10" width="39.529070503001705" opacity="0.43909011375740503" transform="matrix(0.9421663048780702,-0.3351457204745472,0.3351457204745472,0.9421663048780702,148.63648740920019,-113.46550407925008)" fill="none" stroke="#2c2891"></use><use xlink:href="#bbburst-shape-8" width="9.315522048763839" opacity="0.930642366759483" transform="matrix(0.9527530684860872,-0.30374593082104856,0.30374593082104856,0.9527530684860872,659.1665558507044,-311.94761902821364)" fill="none" stroke="#ffa6d5"></use><use xlink:href="#bbburst-shape-9" width="24.460053949202532" opacity="0.7314155495111265" transform="matrix(0.9959188750200022,-0.09025294664936535,0.09025294664936535,0.9959188750200022,484.6756877148849,-368.55600752988846)" fill="none" stroke="#ffa6d5"></use><use xlink:href="#bbburst-shape-10" width="5.805425670890221" opacity="0.9740011128405013" transform="matrix(0.9821590060973686,-0.18805235106700752,0.18805235106700752,0.9821590060973686,699.0088249244892,-380.04388597537894)" fill="none" stroke="#ffbd9b"></use><use xlink:href="#bbburst-shape-12" width="35.23604158313682" opacity="0.5480558552691823" transform="matrix(0.9409099237912186,-0.33865692863309793,0.33865692863309793,0.9409099237912186,608.0746769552718,79.72503114924297)" fill="none" stroke="#ffa6d5"></use><use xlink:href="#bbburst-shape-7" width="7.08312973276824" opacity="0.9658246154717604" transform="matrix(0.9762289501321371,-0.21674186703058881,0.21674186703058881,0.9762289501321371,696.2754397180502,-358.34423158859715)" fill="#ff5c58"></use><use xlink:href="#bbburst-shape-6" width="5.276658904973326" opacity="0.989847027242512" transform="matrix(0.9976103400806733,0.06909131178464822,-0.06909131178464822,0.9976103400806733,816.5771791682156,-393.5639398953202)" fill="#2c2891"></use><use xlink:href="#bbburst-shape-9" width="26.17722156744715" opacity="0.5892731523065408" transform="matrix(0.9551111698711755,0.29624762140364014,-0.29624762140364014,0.9551111698711755,733.202088389969,-13.504849713504314)" fill="none" stroke="#00a19d"></use><use xlink:href="#bbburst-shape-8" width="38.230535452597714" opacity="0.4049784243164788" transform="matrix(0.819029838475027,-0.5737509247814518,0.5737509247814518,0.819029838475027,271.872054333293,206.78428776227184)" fill="none" stroke="#ffa6d5"></use><use xlink:href="#bbburst-shape-11" width="17.47278989312417" opacity="0.8502239065693339" transform="matrix(0.874113499981054,-0.48572171986732465,0.48572171986732465,0.874113499981054,492.48367607256466,-239.26674628757985)" fill="none" stroke="#ffa6d5"></use><use xlink:href="#bbburst-shape-13" width="11.203277478719581" opacity="0.906421324517332" transform="matrix(0.9053752949847201,0.4246122645794997,-0.4246122645794997,0.9053752949847201,951.7701112575082,-271.85780338309536)" fill="none" stroke="#00a19d"></use><use xlink:href="#bbburst-shape-12" width="35.18929015764274" opacity="0.4964021751083857" transform="matrix(0.8518988215212077,-0.5237064042865789,0.5237064042865789,0.8518988215212077,369.37447723992284,127.88404099948366)" fill="none" stroke="#ffbd9b"></use><use xlink:href="#bbburst-shape-8" width="18.83498941903327" opacity="0.7856569700339283" transform="matrix(0.7330590009677828,-0.680165054306759,0.680165054306759,0.7330590009677828,359.1715030475545,-146.30254774047415)" fill="none" stroke="#ffbd9b"></use><use xlink:href="#bbburst-shape-8" width="38.84007445834726" opacity="0.5315694646905544" transform="matrix(0.9924677232661393,-0.12250640095491326,0.12250640095491326,0.9924677232661393,472.8662682585443,-4.197950084376998)" fill="none" stroke="#ff5c58"></use><use xlink:href="#bbburst-shape-9" width="7.8253941482342" opacity="0.9501405990230847" transform="matrix(0.9877711602965873,-0.15591066315789187,0.15591066315789187,0.9877711602965873,720.1211264767039,-346.59359618267)" fill="none" stroke="#00a19d"></use><use xlink:href="#bbburst-shape-10" width="29.582344640947653" opacity="0.4278292118997601" transform="matrix(0.8402177952099454,0.5422490724865633,-0.5422490724865633,0.8402177952099454,435.62332463325635,-282.53833379660887)" fill="none" stroke="#2c2891"></use><use xlink:href="#bbburst-shape-9" width="41.2307151809483" opacity="0.3150586545173848" transform="matrix(0.7412839464041925,-0.6711915604381704,0.6711915604381704,0.7412839464041925,270.8595269030467,356.66693543432905)" fill="none" stroke="#00a19d"></use><use xlink:href="#bbburst-shape-7" width="55.85576662736185" opacity="0.27615273256713635" transform="matrix(0.8303647920233823,-0.5572201648971123,0.5572201648971123,0.8303647920233823,184.1875647388403,305.9126161499835)" fill="#00a19d"></use><use xlink:href="#bbburst-shape-9" width="20.755791332901154" opacity="0.6872615010614767" transform="matrix(0.980114167689205,-0.19843441812069015,0.19843441812069015,0.980114167689205,681.7068026136031,-78.70650288945433)" fill="none" stroke="#ff5c58"></use><use xlink:href="#bbburst-shape-9" width="58.36370012001157" opacity="0.28275368093149766" transform="matrix(0.9959920601808908,-0.08944169081935358,0.08944169081935358,0.9959920601808908,181.85973140330765,60.26608083811141)" fill="none" stroke="#ffa6d5"></use><use xlink:href="#bbburst-shape-13" width="42.38351744220363" opacity="0.37177737482482753" transform="matrix(0.7320899510208162,-0.6812079738334975,0.6812079738334975,0.7320899510208162,-86.75024763786305,-88.24541244488432)" fill="none" stroke="#2c2891"></use></svg>